<?xml version="1.0" encoding="utf-8"?>
<!-- Generator: Adobe Illustrator 18.1.1, SVG Export Plug-In . SVG Version: 6.00 Build 0)  -->
<svg version="1.1" id="Layer_1" xmlns="http://www.w3.org/2000/svg" xmlns:xlink="http://www.w3.org/1999/xlink" x="0px" y="0px"
	 viewBox="0 0 792 612" enable-background="new 0 0 792 612" xml:space="preserve">
<circle fill="#F1562D" cx="396" cy="235.1" r="176.5"/>
<rect x="39.5" y="429" fill="none" width="713" height="127"/>
<text transform="matrix(1 0 0 1 114.3525 505.4492)" font-family="'ArvilSans'" font-size="110">Rockford Web Devs</text>
<path fill="none" stroke="#FFFFFF" stroke-width="2" stroke-miterlimit="10" d="M375.2,220.2c0,0-0.9-0.1-1.1,0
	c-1.5,0.5-4.9,4-6.3,6.7l-0.7,1.4c-0.1,0.1-0.1,0.2-0.2,0.3c-0.2,0.6-0.5,0.9-0.7,1.5c-1.1,2.8-1.8,5.4-2.5,8.2
	c-0.7,3.2-1.6,6.4-1.7,9.8c0,1.1-0.1,2.1,0.3,3.1c0.2,0.7,0.7,0.9,1.3,0.4c0.8-0.7,1.5-1.5,2.3-2.1c2-1.8,3.7-3.9,5.8-5.6
	c0.4-0.3,0.7-0.5,1.1-0.4c0.4,0.2,0.2,0.7,0.2,1c0.2,4.5-0.4,8.9-1.9,13.1c-0.3,1.1-0.7,2.1-1.4,3l-2.1,3.1c-0.7,1-1.5,1.9-2.2,2.9
	c-1.6,2.6-3.5,4.9-5.7,6.9c-0.3,0.3-0.7,0.7-0.5,1.2c0.2,0.5,0.5,0.4,0.9,0.5c2.4,0.3,5,0.3,7.3,0.1c0.2,0,0.4-0.1,0.7-0.1
	c1.4-0.4,2.2-1.7,3.2-2.7c0.9-0.9,2.3-2.6,2.3-2.6l1.6-1.9c0.2-0.1,0.4-0.2,0.6-0.2l0,3.3c-0.1,0.6,0.1,1.2,0,1.8c0,0.3,0.1,0.7,0,1
	v25.6c0.2,0,0.2,0.1,0.5,0.1c1.3,0,2.6,0,3.9,0c0,0,0.1-0.1,0.1-0.1h11.7V269l0-2.3 M391.8,266.9L391.8,266.9l0-0.2
	c0.6-0.3,1.2-0.7,1.9-1c2.6-2.2,5.4-4.1,8.2-6.2c5-3.7,10-7.4,15-11.1c0.5-0.4,1.2-1.1,1.7-0.7c0.4,0.3,0.3,1.2,0.3,1.9
	c0,1.4-0.2,2.8-0.1,4.3c-0.1,1.3,0,2.8,0,3.9c-0.1,3.2,0.1,6.2,0.1,9.3c-0.1,5.1,0.2,10.2,0.1,15.3c0,1.1,0,2.3,0,3.3l0.1,3.4
	c0,1.9,0.1,3.8,0,5.7c0,0.8,0.1,1.6,0.1,2.4c0.1,1,0.1,1,1,1.1c1.4,0,2.8-0.1,4.1-0.1c0.6,0,0.8,0,1.2,0c0.9,0,3,0.3,3.2-0.7
	c0-0.1,0-1,0-1.1c0-1.1,0-1.8,0-2.9c0.1-4.7,0-9.4,0-14.2c0-0.5,0-1,0-1.5c0-2.1,0-4.2,0-6.3c0-1.3,0-2.6-0.1-3.8c0-1.9,0-2.1,0-3.2
	c-0.2-6.8-0.6-13.7-0.8-20.5c0-1.3-0.1-2.3-1.7-2.3c0.1-0.2,0.1-0.3,0.2-0.3c3.4-2.5,6.7-5,10.1-7.5c6.7-5,13.4-9.9,20.1-14.9
	c8.7-6.5,17.4-13,26.1-19.5c0.6-0.4,0.6-0.8,0.2-1.3c-0.9-1.2-1.8-2.3-2.7-3.5c0.1-0.1,0.1-0.1,0,0c-0.1-0.1-0.2-0.2-0.3-0.3
	c0.1-0.2,0-0.1-0.1-0.1c0,0-0.1-0.1-0.1-0.1l0,0c0,0,0,0,0,0c0-0.1-0.1-0.2-0.1-0.3c0,0,0,0,0,0c0,0,0,0,0,0
	c-0.6-1.3-1.1-1.4-2.5-0.3c-1.9,1.5-3.7,2.9-5.6,4.4c-2.8,2.2-5.7,4.3-8.5,6.5c-1.3,1-2.5,2-3.8,2.9c-3.1,2.1-6.1,4.6-9.1,6.8
	c-4.3,3.2-8.5,6.7-12.8,9.9c-1.1,0.8-1.5,1-2.8,2.2l-0.3,0.3c-0.1,0-0.4,0.3-0.5,0.3c-0.9,0.8-0.6,0.6-0.9,0.8
	c-1.7,1.3-3.2,2.5-5,3.7c-0.5,0.4-1,0.9-1.6,1.3c-2.4,1.4-4.2,3.3-6.5,4.6c-0.2,0.1-0.3,0.1-0.5,0.2c-0.2-0.2-0.2-0.5-0.1-0.6
	c0.9-0.8,1.5-2,2.6-2.6l10.5-10.7c0.5-0.9,0.2-1.8-0.3-2.5c-1.9-2.8-4.7-4.5-7.9-5.4c-1.4-0.4-2.8-0.6-4.2,0
	c-0.6,0.2-0.9,1.2-1.5,0.8l-0.6-12c0-1.1-0.4-1.5-1.5-1.5c-3.7,0.1-7.4,0.2-11,0.4c-1.7,0.1-2.1-0.6-1.4-2.2
	c0.1-0.1,0.1-0.3,0.2-0.4c1.5-2,2.9-4,4.4-6c5.7-7.5,11.3-15.1,17-22.6c0.6-0.9,0.5-1.3-0.6-1.5c-0.9-0.1-1.8-0.2-2.8,0
	c-5.1,0.9-10,2.5-14.8,4.4c0,0-6.2,3.2-8.1,4.6c-2.5,1.7-3.5,4.9-5.2,7.4c-0.5,0.7-0.9,1.1-1.7,1.2c-1.1-0.2-0.7-0.1-1.1-0.2
	c-3.2-0.4-6.4-0.9-9.6-1.4c-0.9-0.1-1.1,0.2-1,1l0.7,30.7c0,0.6-0.2,0.5-0.6,0.6l-6.5,1.1 M391.9,251.8c0-0.1,0-0.2,0-0.4
	C391.9,251.6,391.9,251.7,391.9,251.8z M411.2,235.9c-0.5,1.2-0.9,2.4-1,3.7c-0.3,0.9-0.3,1.9-0.4,2.9c0.1,0,0.3-0.1,0.3-0.2
	c0,0.1-0.2,0.1-0.3,0.2c0.4,0.5,0.1,1.1,0.3,1.7l0,0c-0.3,0.5-0.8,1-1.3,1.3c-1.4,1-2.8,1.9-4.1,3c-3.3,2.8-6.8,5.2-10.3,7.8
	c-0.8,0.6-1.5,1.4-2.4,1.7l-0.1-4.3c0-0.7-0.1-1.5,0.1-2.2c0.5-2.2-0.4-3.9-1.9-5.4c-0.4-0.7-0.8-1.4-1.6-1.8
	c-0.2-0.3-0.4-0.5-0.7-0.7c-1.9-1.9-3.7-3.9-6.1-5.3c-0.6-0.4-1-1.1-2-1.1c-0.6,0,0-0.7,0.2-0.9c1-0.8,1.8-1.7,2.7-2.5
	c2.7-2.6,5.5-5,8-7.8c0.4-0.5,0.9-0.4,1.4-0.3c2.6,0.3,5.1,0.7,7.7,1.1c1.5,0.2,1.4,0.2,1.6-1.3c0.2-2.5,0.4-4.9,0.7-7.4
	c0-0.2-0.1-0.6,0.3-0.8c0.3,0.3,0.2,0.8,0.2,1.1c0.1,1.9,0,3.8,0.4,5.7c0.3,1.5,0.9,3,1.9,4.2c2,2.3,5,2.4,7.5,0.2
	c0.9-0.8,1.6-1.7,2.3-2.6c0.3,0.5-0.3,0.9-0.1,1.4"/>
<g>
	<path fill="#FFFFFF" d="M351,206.7c0.5-0.5,0.3-1.4-0.5-2.7c-0.9-1.3-1.7-2.3-2.6-3.2c-1-1-2.2-1.9-3.5-2.7
		c-1.3-0.8-2.2-0.9-2.7-0.4c-5.3,5.5-10.2,10.5-14.7,14.9c-3.8,3.8-7.2,7.2-10.4,10.3c-3.2,3.1-4.9,4.8-5.3,5.2
		c-5.7,5.7-5.7,11.4,0,17.2l30.4,30.4c0.5,0.5,1.3,0.5,2.5-0.1c1.1-0.6,2.4-1.6,3.7-3c1.2-1.4,2.1-2.6,2.8-3.6c0.7-1,0.7-1.9,0-2.6
		l-27.3-27.3c-1.7-1.5-1.7-3.2,0-4.9L351,206.7z"/>
	<path fill="#FFFFFF" d="M458.9,207.3c0.2-0.1,0.4-0.3,0.6-0.4l-9.1-9.2c-0.5-0.5-1.3-0.4-2.5,0.3c-1.1,0.7-2.4,1.6-3.7,2.8
		c-1.4,1.4-2.4,2.6-3,3.6c-0.6,1-0.6,1.9,0.1,2.6c2.7,2.8,5.2,5.4,7.6,7.8c0.3-0.2,0.6-0.4,0.8-0.6
		C452.8,211.9,455.7,209.4,458.9,207.3z"/>
	<path fill="#FFFFFF" d="M480.7,228.3l-15.6-15.7c-2.9,2.2-5.8,4.3-8.7,6.5c-0.6,0.5-1.2,0.9-1.9,1.4l14,14c1.5,1.6,1.5,3.1,0,4.6
		L441,266.6c-0.5,0.5-0.3,1.4,0.5,2.7c0.9,1.3,1.7,2.5,2.6,3.5c0.9,0.9,2,1.7,3.3,2.5s2.3,0.9,2.8,0.4l30.4-30.4
		c2.7-2.9,4.2-5.7,4.2-8.5C485,234,483.6,231.2,480.7,228.3z"/>
</g>
</svg>
